<svg xmlns="http://www.w3.org/2000/svg" width="16" height="16" viewBox="0 0 16 16" fill="none">
  <path d="M8.61539 0.615385C8.61539 0.276923 8.33846 0 8 0C7.66154 0 7.38462 0.276923 7.38462 0.615385V7.38462H0.615385C0.276923 7.38462 0 7.66154 0 8C0 8.33846 0.276923 8.61539 0.615385 8.61539H7.38462V15.3846C7.38462 15.7231 7.66154 16 8 16C8.33846 16 8.61539 15.7231 8.61539 15.3846V8.61539H15.3846C15.7231 8.61539 16 8.33846 16 8C16 7.66154 15.7231 7.38462 15.3846 7.38462H8.61539V0.615385Z" fill="#5D55F7"/>
</svg>