<svg xmlns="http://www.w3.org/2000/svg" width="12" height="12" viewBox="0 0 12 12" fill="none">
  <path d="M0.315789 6.50526C0.315789 6.05181 0.683387 5.68421 1.13684 5.68421H2.02105C2.47451 5.68421 2.84211 6.05181 2.84211 6.50526V10.5474C2.84211 11.0008 2.47451 11.3684 2.02105 11.3684H1.13684C0.683387 11.3684 0.315789 11.0008 0.315789 10.5474V6.50526ZM4.73684 4.61053C4.73684 4.15707 5.10444 3.78947 5.55789 3.78947H6.4421C6.89556 3.78947 7.26316 4.15707 7.26316 4.61053V10.5474C7.26316 11.0008 6.89556 11.3684 6.4421 11.3684H5.55789C5.10444 11.3684 4.73684 11.0008 4.73684 10.5474V4.61053ZM9.15789 1.45263C9.15789 0.999176 9.52549 0.631579 9.97895 0.631579H10.8632C11.3166 0.631579 11.6842 0.999176 11.6842 1.45263V10.5474C11.6842 11.0008 11.3166 11.3684 10.8632 11.3684H9.97895C9.52549 11.3684 9.15789 11.0008 9.15789 10.5474V1.45263Z" stroke="#404040" stroke-width="0.631579"/>
</svg>