<svg xmlns="http://www.w3.org/2000/svg" width="16" height="16" viewBox="0 0 16 16" fill="none">
  <path d="M2 15H9C9.55313 15 10 14.5531 10 14V12H11V14C11 15.1031 10.1031 16 9 16H2C0.896875 16 0 15.1031 0 14V7C0 5.89687 0.896875 5 2 5H4V6H2C1.44687 6 1 6.44688 1 7V14C1 14.5531 1.44687 15 2 15ZM7 10H14C14.5531 10 15 9.55313 15 9V2C15 1.44687 14.5531 1 14 1H7C6.44688 1 6 1.44687 6 2V9C6 9.55313 6.44688 10 7 10ZM5 9V2C5 0.896875 5.89687 0 7 0H14C15.1031 0 16 0.896875 16 2V9C16 10.1031 15.1031 11 14 11H7C5.89687 11 5 10.1031 5 9Z" fill="#D4D4D4"/>
</svg>