<svg xmlns="http://www.w3.org/2000/svg" width="12" height="12" viewBox="0 0 12 12" fill="none">
  <path d="M1.5 11.25H6.75C7.16484 11.25 7.5 10.9148 7.5 10.5V9H8.25V10.5C8.25 11.3273 7.57734 12 6.75 12H1.5C0.672656 12 0 11.3273 0 10.5V5.25C0 4.42266 0.672656 3.75 1.5 3.75H3V4.5H1.5C1.08516 4.5 0.75 4.83516 0.75 5.25V10.5C0.75 10.9148 1.08516 11.25 1.5 11.25ZM5.25 7.5H10.5C10.9148 7.5 11.25 7.16484 11.25 6.75V1.5C11.25 1.08516 10.9148 0.75 10.5 0.75H5.25C4.83516 0.75 4.5 1.08516 4.5 1.5V6.75C4.5 7.16484 4.83516 7.5 5.25 7.5ZM3.75 6.75V1.5C3.75 0.672656 4.42266 0 5.25 0H10.5C11.3273 0 12 0.672656 12 1.5V6.75C12 7.57734 11.3273 8.25 10.5 8.25H5.25C4.42266 8.25 3.75 7.57734 3.75 6.75Z" fill="#404040"/>
</svg>