<svg xmlns="http://www.w3.org/2000/svg" width="10" height="16" viewBox="0 0 10 16" fill="none">
  <path d="M2.53844 1.84615C2.53844 1.68294 2.47361 1.52642 2.3582 1.41101C2.24279 1.2956 2.08627 1.23077 1.92306 1.23077C1.75985 1.23077 1.60332 1.2956 1.48792 1.41101C1.37251 1.52642 1.30767 1.68294 1.30767 1.84615C1.30767 2.00936 1.37251 2.16589 1.48792 2.2813C1.60332 2.3967 1.75985 2.46154 1.92306 2.46154C2.08627 2.46154 2.24279 2.3967 2.3582 2.2813C2.47361 2.16589 2.53844 2.00936 2.53844 1.84615ZM0.0769043 1.84615C0.0769043 1.35652 0.271409 0.886947 0.61763 0.540726C0.963851 0.194505 1.43343 0 1.92306 0C2.41269 0 2.88227 0.194505 3.22849 0.540726C3.57471 0.886947 3.76921 1.35652 3.76921 1.84615C3.76921 2.33578 3.57471 2.80536 3.22849 3.15158C2.88227 3.4978 2.41269 3.69231 1.92306 3.69231C1.43343 3.69231 0.963851 3.4978 0.61763 3.15158C0.271409 2.80536 0.0769043 2.33578 0.0769043 1.84615ZM2.53844 8C2.53844 7.83679 2.47361 7.68026 2.3582 7.56486C2.24279 7.44945 2.08627 7.38462 1.92306 7.38462C1.75985 7.38462 1.60332 7.44945 1.48792 7.56486C1.37251 7.68026 1.30767 7.83679 1.30767 8C1.30767 8.16321 1.37251 8.31974 1.48792 8.43514C1.60332 8.55055 1.75985 8.61539 1.92306 8.61539C2.08627 8.61539 2.24279 8.55055 2.3582 8.43514C2.47361 8.31974 2.53844 8.16321 2.53844 8ZM0.0769043 8C0.0769043 7.51037 0.271409 7.04079 0.61763 6.69457C0.963851 6.34835 1.43343 6.15385 1.92306 6.15385C2.41269 6.15385 2.88227 6.34835 3.22849 6.69457C3.57471 7.04079 3.76921 7.51037 3.76921 8C3.76921 8.48963 3.57471 8.95921 3.22849 9.30543C2.88227 9.65165 2.41269 9.84615 1.92306 9.84615C1.43343 9.84615 0.963851 9.65165 0.61763 9.30543C0.271409 8.95921 0.0769043 8.48963 0.0769043 8ZM1.92306 14.7692C2.08627 14.7692 2.24279 14.7044 2.3582 14.589C2.47361 14.4736 2.53844 14.3171 2.53844 14.1538C2.53844 13.9906 2.47361 13.8341 2.3582 13.7187C2.24279 13.6033 2.08627 13.5385 1.92306 13.5385C1.75985 13.5385 1.60332 13.6033 1.48792 13.7187C1.37251 13.8341 1.30767 13.9906 1.30767 14.1538C1.30767 14.3171 1.37251 14.4736 1.48792 14.589C1.60332 14.7044 1.75985 14.7692 1.92306 14.7692ZM1.92306 12.3077C2.41269 12.3077 2.88227 12.5022 3.22849 12.8484C3.57471 13.1946 3.76921 13.6642 3.76921 14.1538C3.76921 14.6435 3.57471 15.1131 3.22849 15.4593C2.88227 15.8055 2.41269 16 1.92306 16C1.43343 16 0.963851 15.8055 0.61763 15.4593C0.271409 15.1131 0.0769043 14.6435 0.0769043 14.1538C0.0769043 13.6642 0.271409 13.1946 0.61763 12.8484C0.963851 12.5022 1.43343 12.3077 1.92306 12.3077ZM8.69229 1.84615C8.69229 1.68294 8.62745 1.52642 8.51205 1.41101C8.39664 1.2956 8.24012 1.23077 8.0769 1.23077C7.91369 1.23077 7.75717 1.2956 7.64176 1.41101C7.52636 1.52642 7.46152 1.68294 7.46152 1.84615C7.46152 2.00936 7.52636 2.16589 7.64176 2.2813C7.75717 2.3967 7.91369 2.46154 8.0769 2.46154C8.24012 2.46154 8.39664 2.3967 8.51205 2.2813C8.62745 2.16589 8.69229 2.00936 8.69229 1.84615ZM6.23075 1.84615C6.23075 1.35652 6.42526 0.886947 6.77148 0.540726C7.1177 0.194505 7.58727 0 8.0769 0C8.56653 0 9.03611 0.194505 9.38233 0.540726C9.72855 0.886947 9.92306 1.35652 9.92306 1.84615C9.92306 2.33578 9.72855 2.80536 9.38233 3.15158C9.03611 3.4978 8.56653 3.69231 8.0769 3.69231C7.58727 3.69231 7.1177 3.4978 6.77148 3.15158C6.42526 2.80536 6.23075 2.33578 6.23075 1.84615ZM8.0769 8.61539C8.24012 8.61539 8.39664 8.55055 8.51205 8.43514C8.62745 8.31974 8.69229 8.16321 8.69229 8C8.69229 7.83679 8.62745 7.68026 8.51205 7.56486C8.39664 7.44945 8.24012 7.38462 8.0769 7.38462C7.91369 7.38462 7.75717 7.44945 7.64176 7.56486C7.52636 7.68026 7.46152 7.83679 7.46152 8C7.46152 8.16321 7.52636 8.31974 7.64176 8.43514C7.75717 8.55055 7.91369 8.61539 8.0769 8.61539ZM8.0769 6.15385C8.56653 6.15385 9.03611 6.34835 9.38233 6.69457C9.72855 7.04079 9.92306 7.51037 9.92306 8C9.92306 8.48963 9.72855 8.95921 9.38233 9.30543C9.03611 9.65165 8.56653 9.84615 8.0769 9.84615C7.58727 9.84615 7.1177 9.65165 6.77148 9.30543C6.42526 8.95921 6.23075 8.48963 6.23075 8C6.23075 7.51037 6.42526 7.04079 6.77148 6.69457C7.1177 6.34835 7.58727 6.15385 8.0769 6.15385ZM8.69229 14.1538C8.69229 13.9906 8.62745 13.8341 8.51205 13.7187C8.39664 13.6033 8.24012 13.5385 8.0769 13.5385C7.91369 13.5385 7.75717 13.6033 7.64176 13.7187C7.52636 13.8341 7.46152 13.9906 7.46152 14.1538C7.46152 14.3171 7.52636 14.4736 7.64176 14.589C7.75717 14.7044 7.91369 14.7692 8.0769 14.7692C8.24012 14.7692 8.39664 14.7044 8.51205 14.589C8.62745 14.4736 8.69229 14.3171 8.69229 14.1538ZM6.23075 14.1538C6.23075 13.6642 6.42526 13.1946 6.77148 12.8484C7.1177 12.5022 7.58727 12.3077 8.0769 12.3077C8.56653 12.3077 9.03611 12.5022 9.38233 12.8484C9.72855 13.1946 9.92306 13.6642 9.92306 14.1538C9.92306 14.6435 9.72855 15.1131 9.38233 15.4593C9.03611 15.8055 8.56653 16 8.0769 16C7.58727 16 7.1177 15.8055 6.77148 15.4593C6.42526 15.1131 6.23075 14.6435 6.23075 14.1538Z" fill="#D4D4D4"/>
</svg>