<svg xmlns="http://www.w3.org/2000/svg" width="16" height="3" viewBox="0 0 16 3" fill="none">
  <path d="M16 1.33333C16 1.68696 15.8595 2.02609 15.6095 2.27614C15.3594 2.52619 15.0203 2.66667 14.6667 2.66667C14.313 2.66667 13.9739 2.52619 13.7239 2.27614C13.4738 2.02609 13.3333 1.68696 13.3333 1.33333C13.3333 0.979711 13.4738 0.640573 13.7239 0.390525C13.9739 0.140476 14.313 0 14.6667 0C15.0203 0 15.3594 0.140476 15.6095 0.390525C15.8595 0.640573 16 0.979711 16 1.33333ZM9.33333 1.33333C9.33333 1.68696 9.19286 2.02609 8.94281 2.27614C8.69276 2.52619 8.35362 2.66667 8 2.66667C7.64638 2.66667 7.30724 2.52619 7.05719 2.27614C6.80714 2.02609 6.66667 1.68696 6.66667 1.33333C6.66667 0.979711 6.80714 0.640573 7.05719 0.390525C7.30724 0.140476 7.64638 0 8 0C8.35362 0 8.69276 0.140476 8.94281 0.390525C9.19286 0.640573 9.33333 0.979711 9.33333 1.33333ZM1.33333 2.66667C0.979711 2.66667 0.640573 2.52619 0.390524 2.27614C0.140476 2.02609 0 1.68696 0 1.33333C0 0.979711 0.140476 0.640573 0.390524 0.390525C0.640573 0.140476 0.979711 0 1.33333 0C1.68696 0 2.02609 0.140476 2.27614 0.390525C2.52619 0.640573 2.66667 0.979711 2.66667 1.33333C2.66667 1.68696 2.52619 2.02609 2.27614 2.27614C2.02609 2.52619 1.68696 2.66667 1.33333 2.66667Z" fill="#404040"/>
</svg>