<svg width="136" height="152" viewBox="0 0 136 152" fill="none" xmlns="http://www.w3.org/2000/svg">
<g clip-path="url(#clip0_571_1058)">
<path d="M0 9.06667C0 4.05929 4.05928 0 9.06666 0H126.933C131.941 0 136 4.05928 136 9.06666V24.9333C136 29.9407 131.941 34 126.933 34H9.06667C4.05929 34 0 29.9407 0 24.9333V9.06667Z" fill="#5D55F7"/>
<path d="M59.5 -18.4764C35.9267 -22.1031 20.9667 19.3013 16.4333 40.4569C40.9889 49.9013 81.0333 63.1236 44.7667 40.4569C-0.566671 12.1236 88.9667 -13.9431 59.5 -18.4764Z" fill="#4831D1"/>
<path d="M137.103 46.7921C144.938 24.2651 106.927 2.05529 86.9421 -6.23374C73.2075 16.2058 52.953 53.1942 81.8118 21.6313C117.885 -17.8224 127.309 74.9508 137.103 46.7921Z" fill="#4831D1"/>
</g>
<g clip-path="url(#clip1_571_1058)">
<path d="M10.8819 51.3318C10.8819 47.7007 13.8255 44.7571 17.4567 44.7571H118.543C122.174 44.7571 125.118 47.7007 125.118 51.3318V94.0676C125.118 97.6988 122.174 100.642 118.543 100.642H17.4567C13.8255 100.642 10.8819 97.6988 10.8819 94.0676V51.3318Z" fill="white"/>
<rect x="10.8819" y="89.3641" width="114.236" height="9.86211" fill="#171717"/>
<path d="M22.1823 55.4411C22.1823 53.739 23.5621 52.3591 25.2642 52.3591H110.736C112.438 52.3591 113.818 53.739 113.818 55.4411V58.7284C113.818 60.4305 112.438 61.8103 110.736 61.8103H25.2642C23.5621 61.8103 22.1823 60.4305 22.1823 58.7284V55.4411Z" fill="#FAFAFA" stroke="#E5E5E5" stroke-width="0.410921"/>
<path d="M21.9768 70.645C21.9768 69.7372 22.7127 69.0013 23.6205 69.0013H39.6464C40.5542 69.0013 41.2901 69.7372 41.2901 70.645C41.2901 71.5528 40.5542 72.2887 39.6464 72.2887H23.6205C22.7127 72.2887 21.9768 71.5528 21.9768 70.645Z" fill="#D4D4D4"/>
<path d="M21.9768 79.9741C21.9768 79.0663 22.7127 78.3304 23.6205 78.3304H39.6464C40.5542 78.3304 41.2901 79.0663 41.2901 79.9741C41.2901 80.8819 40.5542 81.6178 39.6464 81.6178H23.6205C22.7127 81.6178 21.9768 80.8819 21.9768 79.9741Z" fill="#D4D4D4"/>
</g>
<path d="M12.1147 51.3318C12.1147 48.3815 14.5064 45.9898 17.4567 45.9898H118.543C121.494 45.9898 123.885 48.3815 123.885 51.3318V94.0676C123.885 97.0179 121.494 99.4096 118.543 99.4096H17.4567C14.5064 99.4096 12.1147 97.0179 12.1147 94.0676V51.3318Z" stroke="#3E64F3" stroke-width="2.46553"/>
<g clip-path="url(#clip2_571_1058)">
<path d="M26.9839 116.121C26.9839 113.513 29.0977 111.399 31.7052 111.399H104.295C106.902 111.399 109.016 113.513 109.016 116.121V146.809C109.016 149.416 106.902 151.53 104.295 151.53H31.7052C29.0977 151.53 26.9839 149.416 26.9839 146.809V116.121Z" fill="white"/>
<rect x="26.9839" y="143.432" width="82.0322" height="7.08192" fill="#171717"/>
<path d="M33.7634 119.885C33.7634 119.23 34.2946 118.698 34.9498 118.698H88.1691C88.8243 118.698 89.3555 119.23 89.3555 119.885C89.3555 120.54 88.8243 121.071 88.1691 121.071H34.9498C34.2946 121.071 33.7634 120.54 33.7634 119.885Z" fill="#D4D4D4"/>
<path d="M33.7634 126.156H94.7791" stroke="#E5E5E5" stroke-width="0.338976"/>
<path d="M33.9341 132.645C33.9341 131.993 34.4626 131.465 35.1144 131.465H46.6226C47.2744 131.465 47.8029 131.993 47.8029 132.645C47.8029 133.297 47.2744 133.825 46.6226 133.825H35.1144C34.4626 133.825 33.9341 133.297 33.9341 132.645Z" fill="#D4D4D4"/>
</g>
<path d="M27.8691 116.121C27.8691 114.002 29.5866 112.285 31.7052 112.285H104.295C106.413 112.285 108.131 114.002 108.131 116.121V146.809C108.131 148.928 106.413 150.645 104.295 150.645H31.7052C29.5866 150.645 27.8691 148.928 27.8691 146.809V116.121Z" stroke="white" stroke-width="1.77048"/>
<defs>
<clipPath id="clip0_571_1058">
<path d="M0 9.06667C0 4.05929 4.05928 0 9.06666 0H126.933C131.941 0 136 4.05928 136 9.06666V24.9333C136 29.9407 131.941 34 126.933 34H9.06667C4.05929 34 0 29.9407 0 24.9333V9.06667Z" fill="white"/>
</clipPath>
<clipPath id="clip1_571_1058">
<path d="M10.8819 51.3318C10.8819 47.7007 13.8255 44.7571 17.4567 44.7571H118.543C122.174 44.7571 125.118 47.7007 125.118 51.3318V94.0676C125.118 97.6988 122.174 100.642 118.543 100.642H17.4567C13.8255 100.642 10.8819 97.6988 10.8819 94.0676V51.3318Z" fill="white"/>
</clipPath>
<clipPath id="clip2_571_1058">
<path d="M26.9839 116.121C26.9839 113.513 29.0977 111.399 31.7052 111.399H104.295C106.902 111.399 109.016 113.513 109.016 116.121V146.809C109.016 149.416 106.902 151.53 104.295 151.53H31.7052C29.0977 151.53 26.9839 149.416 26.9839 146.809V116.121Z" fill="white"/>
</clipPath>
</defs>
</svg>
