<svg xmlns="http://www.w3.org/2000/svg" width="12" height="10" viewBox="0 0 12 10" fill="none">
  <path fill-rule="evenodd" clip-rule="evenodd" d="M8.4 5.08438C8.4 6.40986 7.32548 7.48438 6 7.48438C4.67452 7.48438 3.6 6.40986 3.6 5.08438C3.6 3.75889 4.67452 2.68438 6 2.68438C7.32548 2.68438 8.4 3.75889 8.4 5.08438ZM7.56 5.08438C7.56 5.94594 6.86156 6.64438 6 6.64438C5.13844 6.64438 4.44 5.94594 4.44 5.08438C4.44 4.22281 5.13844 3.52438 6 3.52438C6.86156 3.52438 7.56 4.22281 7.56 5.08438Z" fill="#404040"/>
  <path fill-rule="evenodd" clip-rule="evenodd" d="M12 5.08438C10.8 7.48438 9.31371 9.11563 6 9.11563C2.68629 9.11563 1.2 7.48438 0 5.08438C1.2 2.68438 2.68629 0.884377 6 0.884377C9.31371 0.884377 10.8 2.68438 12 5.08438ZM9.28591 7.33006C9.98311 6.80271 10.5354 6.05412 11.0549 5.08363C10.531 4.0969 9.97356 3.30587 9.26731 2.73984C8.49736 2.12275 7.48856 1.72438 6 1.72438C4.51144 1.72438 3.50264 2.12275 2.73269 2.73984C2.02644 3.30587 1.46905 4.0969 0.945094 5.08363C1.46459 6.05412 2.01689 6.80271 2.71409 7.33006C3.47904 7.90865 4.49209 8.27563 6 8.27563C7.50791 8.27563 8.52096 7.90865 9.28591 7.33006Z" fill="#404040"/>
</svg>