<svg xmlns="http://www.w3.org/2000/svg" width="16" height="12" viewBox="0 0 16 12" fill="none">
  <path fill-rule="evenodd" clip-rule="evenodd" d="M11.2 6.11251C11.2 7.87982 9.76731 9.31251 8 9.31251C6.23269 9.31251 4.8 7.87982 4.8 6.11251C4.8 4.3452 6.23269 2.91251 8 2.91251C9.76731 2.91251 11.2 4.3452 11.2 6.11251ZM10.08 6.11251C10.08 7.26126 9.14875 8.19251 8 8.19251C6.85125 8.19251 5.92 7.26126 5.92 6.11251C5.92 4.96376 6.85125 4.03251 8 4.03251C9.14875 4.03251 10.08 4.96376 10.08 6.11251Z" fill="#404040"/>
  <path fill-rule="evenodd" clip-rule="evenodd" d="M16 6.11251C14.4 9.31251 12.4183 11.4875 8 11.4875C3.58172 11.4875 1.6 9.31251 0 6.11251C1.6 2.91251 3.58172 0.512512 8 0.512512C12.4183 0.512512 14.4 2.91251 16 6.11251ZM12.3812 9.10676C13.3108 8.40362 14.0472 7.40551 14.7399 6.11151C14.0413 4.79588 13.2981 3.74117 12.3564 2.98646C11.3298 2.16368 9.98475 1.63251 8 1.63251C6.01526 1.63251 4.67018 2.16368 3.64358 2.98646C2.70192 3.74117 1.95873 4.79588 1.26013 6.11151C1.95278 7.40551 2.68919 8.40362 3.61879 9.10676C4.63871 9.87821 5.98946 10.3675 8 10.3675C10.0105 10.3675 11.3613 9.87821 12.3812 9.10676Z" fill="#404040"/>
</svg>