<svg xmlns="http://www.w3.org/2000/svg" width="10" height="12" viewBox="0 0 10 12" fill="none">
  <path fill-rule="evenodd" clip-rule="evenodd" d="M9.42596 3.48631C9.54016 3.76158 9.6 4.0583 9.6 4.36V9.72C9.6 10.9792 8.57921 12 7.32 12H2.28C1.02079 12 0 10.9792 0 9.72V2.28C0 1.02079 1.02079 0 2.28 0H5.76C6.47765 0 7.15341 0.337883 7.584 0.912L9.144 2.992C9.21355 3.08474 9.27559 3.18218 9.32982 3.28341C9.37512 3.34789 9.40675 3.41642 9.42596 3.48631ZM0.84 9.72V2.28C0.84 1.48471 1.48471 0.84 2.28 0.84H5.76C5.8035 0.84 5.84675 0.841965 5.88965 0.84584C5.88333 0.883323 5.88 0.922381 5.88 0.962892V3.66C5.88 4.02451 6.17549 4.32 6.54 4.32H8.75944C8.75981 4.33332 8.76 4.34665 8.76 4.36V9.72C8.76 10.5153 8.11529 11.16 7.32 11.16H2.28C1.48471 11.16 0.84 10.5153 0.84 9.72ZM6.72 3.48V1.46006L8.40328 3.48H6.72Z" fill="#404040"/>
</svg>