<svg xmlns="http://www.w3.org/2000/svg" width="13" height="16" viewBox="0 0 13 16" fill="none">
  <path d="M6.4 5.04C6.70928 5.04 6.96 5.29072 6.96 5.6V7.44H8.8C9.10928 7.44 9.36 7.69072 9.36 8C9.36 8.30928 9.10928 8.56 8.8 8.56H6.96V10.4C6.96 10.7093 6.70928 10.96 6.4 10.96C6.09072 10.96 5.84 10.7093 5.84 10.4V8.56H4C3.69072 8.56 3.44 8.30928 3.44 8C3.44 7.69072 3.69072 7.44 4 7.44H5.84V5.6C5.84 5.29072 6.09072 5.04 6.4 5.04Z" fill="white"/>
  <path fill-rule="evenodd" clip-rule="evenodd" d="M3.04 0C1.36105 0 0 1.36105 0 3.04V12.96C0 14.6389 1.36105 16 3.04 16H9.76C11.4389 16 12.8 14.6389 12.8 12.96V5.81333C12.8 5.15557 12.5867 4.51555 12.192 3.98933L10.112 1.216C9.53788 0.45051 8.63686 0 7.68 0H3.04ZM9.76 14.88C10.8204 14.88 11.68 14.0204 11.68 12.96V5.81333C11.68 5.3979 11.5453 4.99368 11.296 4.66133L9.216 1.888C8.8534 1.40453 8.28434 1.12 7.68 1.12H3.04C1.97961 1.12 1.12 1.97961 1.12 3.04V12.96C1.12 14.0204 1.97961 14.88 3.04 14.88H9.76Z" fill="white"/>
</svg>