<svg xmlns="http://www.w3.org/2000/svg" width="16" height="16" viewBox="0 0 16 16" fill="none">
  <path d="M15.4286 5.71429C15.7429 5.71429 16 5.45714 16 5.14286V0.571429C16 0.257143 15.7429 0 15.4286 0C15.1143 0 14.8571 0.257143 14.8571 0.571429V3.87857C13.4571 1.55357 10.9107 0 8 0C3.58214 0 0 3.58214 0 8C0 12.4179 3.58214 16 8 16C10.8536 16 13.3571 14.5071 14.775 12.2571C15.0107 11.8857 14.725 11.4286 14.2857 11.4286C14.0714 11.4286 13.8786 11.5429 13.7607 11.7214C12.5393 13.6071 10.4143 14.8571 8 14.8571C4.21429 14.8571 1.14286 11.7857 1.14286 8C1.14286 4.21429 4.21429 1.14286 8 1.14286C10.5393 1.14286 12.7536 2.52143 13.9393 4.57143H10.8571C10.5429 4.57143 10.2857 4.82857 10.2857 5.14286C10.2857 5.45714 10.5429 5.71429 10.8571 5.71429H15.4286Z" fill="#404040"/>
</svg>