<svg xmlns="http://www.w3.org/2000/svg" width="16" height="16" viewBox="0 0 16 16" fill="none">
  <path fill-rule="evenodd" clip-rule="evenodd" d="M11.3666 12.1706C10.1631 13.1914 8.60525 13.8071 6.90355 13.8071C3.09083 13.8071 0 10.7163 0 6.90355C0 3.09083 3.09083 0 6.90355 0C10.7163 0 13.8071 3.09083 13.8071 6.90355C13.8071 8.60525 13.1914 10.1631 12.1706 11.3666L15.8335 15.0295C16.0555 15.2515 16.0555 15.6115 15.8335 15.8335C15.6115 16.0555 15.2515 16.0555 15.0295 15.8335L11.3666 12.1706ZM10.8844 11.0755C9.84941 12.0634 8.44733 12.6701 6.90355 12.6701C3.7188 12.6701 1.13706 10.0883 1.13706 6.90355C1.13706 3.7188 3.7188 1.13706 6.90355 1.13706C10.0883 1.13706 12.6701 3.7188 12.6701 6.90355C12.6701 8.44733 12.0634 9.84941 11.0755 10.8844C11.0374 10.9076 11.0015 10.9356 10.9685 10.9685C10.9356 11.0015 10.9076 11.0374 10.8844 11.0755Z" fill="#404040"/>
</svg>