<svg xmlns="http://www.w3.org/2000/svg" width="16" height="16" viewBox="0 0 16 16" fill="none">
  <path d="M6.97802 1.18125C6.99052 1.13437 7.01865 1.09375 7.05302 1.0625C7.3624 1.02188 7.67802 1 7.9999 1C8.32177 1 8.6374 1.02188 8.94677 1.0625C8.98115 1.09375 9.00615 1.13437 9.02177 1.18125L9.4499 2.67188C9.55927 3.05 9.83115 3.33125 10.153 3.4875C10.3905 3.6 10.6155 3.73125 10.8311 3.87812C11.1249 4.08125 11.5093 4.175 11.8905 4.08125L13.3968 3.70625C13.4436 3.69375 13.4905 3.69688 13.5343 3.7125C13.703 3.92813 13.8593 4.15625 13.9999 4.39375L14.1343 4.625C14.2655 4.85938 14.3811 5.10313 14.4843 5.35313C14.4749 5.4 14.453 5.44375 14.4186 5.47813L13.3374 6.59375C13.0655 6.875 12.9561 7.25313 12.9843 7.60938C12.9936 7.7375 12.9999 7.86875 12.9999 8C12.9999 8.13125 12.9936 8.2625 12.9843 8.39062C12.9561 8.74687 13.0655 9.125 13.3374 9.40625L14.4155 10.5219C14.4499 10.5563 14.4718 10.6 14.4811 10.6469C14.378 10.8969 14.2624 11.1406 14.1311 11.3781L13.9999 11.6062C13.8561 11.8438 13.6999 12.0688 13.5343 12.2875C13.4905 12.3031 13.4436 12.3031 13.3968 12.2937L11.8905 11.9187C11.5093 11.825 11.128 11.9187 10.8311 12.1219C10.6155 12.2688 10.3905 12.4 10.153 12.5125C9.83115 12.6656 9.55615 12.95 9.4499 13.3281L9.02177 14.8188C9.00927 14.8656 8.98115 14.9062 8.94677 14.9375C8.6374 14.9781 8.32177 15 7.9999 15C7.67802 15 7.3624 14.9781 7.05302 14.9375C7.01865 14.9062 6.99365 14.8656 6.97802 14.8188L6.5499 13.3281C6.44052 12.95 6.16865 12.6687 5.84677 12.5125C5.60927 12.4 5.38427 12.2688 5.16865 12.1219C4.8749 11.9187 4.49052 11.825 4.10927 11.9187L2.60302 12.2937C2.55615 12.3062 2.50927 12.3031 2.46552 12.2875C2.29677 12.0688 2.14052 11.8438 1.99677 11.6062L1.86552 11.3781C1.73427 11.1438 1.61865 10.9 1.51552 10.6469C1.5249 10.6 1.54677 10.5563 1.58115 10.5219L2.6624 9.40625C2.93427 9.125 3.04365 8.74687 3.01552 8.39062C3.00615 8.2625 2.9999 8.13125 2.9999 8C2.9999 7.86875 3.00615 7.7375 3.01552 7.60938C3.04365 7.25313 2.93427 6.875 2.6624 6.59375L1.58427 5.475C1.5499 5.44062 1.52802 5.39687 1.51865 5.35C1.62177 5.1 1.7374 4.85625 1.86865 4.61875L1.9999 4.39062C2.14365 4.15312 2.2999 3.92812 2.46865 3.70937C2.5124 3.69375 2.55927 3.69375 2.60615 3.70312L4.1124 4.07812C4.49365 4.17188 4.8749 4.07812 5.17177 3.875C5.3874 3.72813 5.6124 3.59687 5.8499 3.48438C6.17177 3.33125 6.44677 3.04688 6.55302 2.66875L6.98115 1.17813L6.97802 1.18125ZM7.9999 0C7.59365 0 7.19052 0.03125 6.7999 0.090625C6.74677 0.1 6.69365 0.115625 6.64365 0.140625C6.34677 0.29375 6.11552 0.565625 6.01865 0.90625L5.59052 2.39687C5.57177 2.46562 5.5124 2.5375 5.41552 2.58437C5.13115 2.71875 4.85927 2.87812 4.60302 3.05312C4.51552 3.1125 4.42177 3.12812 4.35302 3.10938L2.84677 2.73438C2.50615 2.65 2.15615 2.71563 1.8749 2.89375C1.82802 2.92188 1.7874 2.95937 1.75302 3.00312C1.53115 3.28125 1.3249 3.57187 1.14052 3.87812L1.1374 3.8875L0.999899 4.125L0.996774 4.13438C0.828024 4.44063 0.678024 4.75625 0.549899 5.08437C0.531149 5.13438 0.518649 5.1875 0.515524 5.24062C0.499899 5.57812 0.618649 5.91563 0.865524 6.17188L1.94365 7.2875C1.99365 7.34062 2.02802 7.425 2.01865 7.53125C2.00615 7.6875 1.9999 7.84375 1.9999 8C1.9999 8.15625 2.00615 8.31563 2.01865 8.46875C2.02802 8.575 1.99365 8.6625 1.94365 8.7125L0.865524 9.83125C0.618649 10.0875 0.499899 10.425 0.515524 10.7625C0.518649 10.8156 0.531149 10.8687 0.549899 10.9187C0.678024 11.2469 0.828024 11.5625 0.996774 11.8687L0.999899 11.8781L1.1374 12.1156L1.14052 12.125C1.3249 12.4312 1.52802 12.725 1.75302 13.0031C1.7874 13.0469 1.82802 13.0844 1.8749 13.1125C2.15615 13.2906 2.50615 13.3563 2.84677 13.2719L4.35302 12.8969C4.42177 12.8781 4.51552 12.8938 4.60302 12.9531C4.85927 13.1313 5.13115 13.2875 5.41552 13.4219C5.5124 13.4688 5.56865 13.5406 5.59052 13.6094L6.01865 15.0938C6.11552 15.4312 6.34677 15.7031 6.64365 15.8594C6.69365 15.8844 6.74365 15.9031 6.7999 15.9094C7.19052 15.9688 7.59365 16 7.9999 16C8.40615 16 8.80927 15.9688 9.1999 15.9094C9.25302 15.9 9.30615 15.8844 9.35615 15.8594C9.65302 15.7063 9.88427 15.4344 9.98115 15.0938L10.4093 13.6031C10.428 13.5344 10.4874 13.4625 10.5843 13.4156C10.8686 13.2812 11.1405 13.1219 11.3968 12.9469C11.4843 12.8875 11.578 12.8719 11.6468 12.8906L13.153 13.2656C13.4936 13.35 13.8436 13.2875 14.1249 13.1062C14.1718 13.0781 14.2124 13.0406 14.2468 12.9969C14.4686 12.7188 14.6718 12.4281 14.8561 12.1219L14.8593 12.1125L14.9999 11.875L15.003 11.8656C15.1718 11.5625 15.3218 11.2437 15.4499 10.9156C15.4686 10.8656 15.4811 10.8125 15.4843 10.7594C15.4999 10.4219 15.3811 10.0844 15.1343 9.82812L14.0561 8.7125C14.0061 8.65937 13.9718 8.575 13.9811 8.46875C13.9936 8.3125 13.9999 8.15625 13.9999 8C13.9999 7.84375 13.9936 7.68437 13.9811 7.53125C13.9718 7.425 14.0061 7.3375 14.0561 7.2875L15.1343 6.17188C15.3811 5.91563 15.4999 5.57812 15.4843 5.24062C15.4811 5.1875 15.4686 5.13438 15.4499 5.08437C15.3218 4.75625 15.1718 4.44063 15.003 4.13438L14.9999 4.125L14.8624 3.8875L14.8593 3.87812C14.6749 3.57187 14.4718 3.27813 14.2499 3.00312C14.2155 2.95937 14.1749 2.92188 14.128 2.89375C13.8468 2.71563 13.4968 2.65 13.1561 2.73438L11.6499 3.10938C11.5811 3.12812 11.4874 3.1125 11.3999 3.05312C11.1436 2.875 10.8718 2.71875 10.5874 2.58437C10.4905 2.5375 10.4343 2.46562 10.4124 2.39687L9.98115 0.90625C9.88427 0.56875 9.65302 0.296875 9.35615 0.140625C9.30615 0.115625 9.25615 0.096875 9.1999 0.090625C8.80927 0.03125 8.40615 0 7.9999 0ZM6.2499 8C6.2499 7.53587 6.43427 7.09075 6.76246 6.76256C7.09065 6.43437 7.53577 6.25 7.9999 6.25C8.46403 6.25 8.90915 6.43437 9.23734 6.76256C9.56553 7.09075 9.7499 7.53587 9.7499 8C9.7499 8.46413 9.56553 8.90925 9.23734 9.23744C8.90915 9.56563 8.46403 9.75 7.9999 9.75C7.53577 9.75 7.09065 9.56563 6.76246 9.23744C6.43427 8.90925 6.2499 8.46413 6.2499 8ZM10.7499 8C10.7499 7.27065 10.4602 6.57118 9.94444 6.05546C9.42872 5.53973 8.72924 5.25 7.9999 5.25C7.27055 5.25 6.57108 5.53973 6.05536 6.05546C5.53963 6.57118 5.2499 7.27065 5.2499 8C5.2499 8.72935 5.53963 9.42882 6.05536 9.94454C6.57108 10.4603 7.27055 10.75 7.9999 10.75C8.72924 10.75 9.42872 10.4603 9.94444 9.94454C10.4602 9.42882 10.7499 8.72935 10.7499 8Z" fill="#404040"/>
</svg>