<svg xmlns="http://www.w3.org/2000/svg" width="11" height="12" viewBox="0 0 11 12" fill="none">
  <path d="M5.51538 0.108995C5.37006 -0.0363317 5.13097 -0.0363317 4.98564 0.108995L1.98535 3.10929C1.84002 3.25461 1.84002 3.4937 1.98535 3.63903C2.13068 3.78435 2.36976 3.78435 2.51509 3.63903L4.87548 1.27864V7.8746C4.87548 8.08087 5.04424 8.24963 5.25051 8.24963C5.45678 8.24963 5.62555 8.08087 5.62555 7.8746V1.27864L7.98594 3.63903C8.13126 3.78435 8.37035 3.78435 8.51568 3.63903C8.661 3.4937 8.661 3.25461 8.51568 3.10929L5.51538 0.108995ZM0.750073 7.8746C0.750073 7.66833 0.581307 7.49956 0.375037 7.49956C0.168766 7.49956 0 7.66833 0 7.8746V10.1248C0 11.1609 0.839144 12 1.87518 12H8.62584C9.66188 12 10.501 11.1609 10.501 10.1248V7.8746C10.501 7.66833 10.3323 7.49956 10.126 7.49956C9.91972 7.49956 9.75095 7.66833 9.75095 7.8746V10.1248C9.75095 10.746 9.247 11.2499 8.62584 11.2499H1.87518C1.25403 11.2499 0.750073 10.746 0.750073 10.1248V7.8746Z" fill="#404040"/>
</svg>