<svg xmlns="http://www.w3.org/2000/svg" width="14" height="16" viewBox="0 0 14 16" fill="none">
  <path d="M7.35238 0.145327C7.15861 -0.0484422 6.83983 -0.0484422 6.64606 0.145327L2.64567 4.14572C2.4519 4.33949 2.4519 4.65827 2.64567 4.85204C2.83944 5.0458 3.15822 5.0458 3.35199 4.85204L6.49917 1.70485V10.4995C6.49917 10.7745 6.72419 10.9995 6.99922 10.9995C7.27425 10.9995 7.49927 10.7745 7.49927 10.4995V1.70485L10.6465 4.85204C10.8402 5.0458 11.159 5.0458 11.3528 4.85204C11.5465 4.65827 11.5465 4.33949 11.3528 4.14572L7.35238 0.145327ZM0.998633 10.4995C0.998633 10.2244 0.773611 9.99941 0.498584 9.99941C0.223557 9.99941 -0.00146484 10.2244 -0.00146484 10.4995V13.4998C-0.00146484 14.8811 1.11739 16 2.49878 16H11.4997C12.881 16 13.9999 14.8811 13.9999 13.4998V10.4995C13.9999 10.2244 13.7749 9.99941 13.4999 9.99941C13.2248 9.99941 12.9998 10.2244 12.9998 10.4995V13.4998C12.9998 14.328 12.3279 14.9999 11.4997 14.9999H2.49878C1.67057 14.9999 0.998633 14.328 0.998633 13.4998V10.4995Z" fill="white"/>
</svg>