<svg xmlns="http://www.w3.org/2000/svg" width="18" height="16" viewBox="0 0 18 16" fill="none">
  <g clip-path="url(#clip0_703_2526)">
    <path d="M7.07806 5.275L8.99681 1.32187L10.9156 5.275C11.0593 5.57188 11.3406 5.77812 11.6687 5.82812L15.9624 6.4625L12.8437 9.55C12.6124 9.77812 12.5062 10.1063 12.5624 10.4281L13.2968 14.7875L9.46869 12.7406C9.17494 12.5844 8.82181 12.5844 8.52494 12.7406L4.69369 14.7875L5.42806 10.4281C5.48119 10.1063 5.37806 9.78125 5.14681 9.55L2.03119 6.4625L6.32494 5.82812C6.65306 5.78125 6.93431 5.57188 7.07806 5.275ZM13.2781 15.9094C13.5312 16.0438 13.8374 16.025 14.0687 15.8562C14.2999 15.6875 14.4187 15.4031 14.3718 15.1219L13.5499 10.2625L17.0249 6.81875C17.2281 6.61875 17.2968 6.32188 17.2093 6.05312C17.1218 5.78437 16.8874 5.5875 16.6062 5.54375L11.8156 4.8375L9.67181 0.421875C9.54681 0.1625 9.28431 0 8.99681 0C8.70931 0 8.44681 0.1625 8.32181 0.421875L6.17806 4.8375L1.39056 5.54688C1.10931 5.5875 0.874936 5.78438 0.787436 6.05625C0.699936 6.32812 0.771811 6.62188 0.971811 6.82188L4.44369 10.2625L3.62494 15.1219C3.57806 15.4031 3.69369 15.6875 3.92806 15.8562C4.16244 16.025 4.46869 16.0438 4.71869 15.9094L8.99994 13.6219L13.2812 15.9094H13.2781Z" fill="black"/>
  </g>
  <defs>
    <clipPath id="clip0_703_2526">
      <rect width="18" height="16" fill="white"/>
    </clipPath>
  </defs>
</svg>