<svg xmlns="http://www.w3.org/2000/svg" width="11" height="12" viewBox="0 0 11 12" fill="none">
  <path d="M4.16484 0.75H6.33281C6.46172 0.75 6.58125 0.815625 6.65156 0.925781L7.01016 1.5H3.48984L3.84844 0.925781C3.91641 0.815625 4.03828 0.75 4.16719 0.75H4.16484ZM7.89609 1.5L7.28906 0.529688C7.08281 0.199219 6.72187 0 6.33516 0H4.16484C3.77812 0 3.41719 0.199219 3.21094 0.529688L2.60391 1.5H1.50234H0.75H0.375C0.16875 1.5 0 1.66875 0 1.875C0 2.08125 0.16875 2.25 0.375 2.25H0.803906L1.40156 10.6078C1.45547 11.393 2.10938 12 2.89687 12H7.60312C8.39062 12 9.04219 11.393 9.09844 10.6078L9.69609 2.25H10.125C10.3313 2.25 10.5 2.08125 10.5 1.875C10.5 1.66875 10.3313 1.5 10.125 1.5H9.75H8.99766H7.89609ZM8.94609 2.25L8.35078 10.5539C8.32266 10.9453 7.99687 11.25 7.60312 11.25H2.89687C2.50312 11.25 2.17734 10.9453 2.14922 10.5539L1.55625 2.25H8.94375H8.94609Z" fill="#404040"/>
</svg>