<svg xmlns="http://www.w3.org/2000/svg" width="16" height="16" viewBox="0 0 16 16" fill="none">
  <path d="M0.571429 5.71429C0.257143 5.71429 0 5.45714 0 5.14286V0.571429C0 0.257143 0.257143 0 0.571429 0C0.885714 0 1.14286 0.257143 1.14286 0.571429V3.87857C2.54286 1.55357 5.08929 0 8 0C12.4179 0 16 3.58214 16 8C16 12.4179 12.4179 16 8 16C5.14643 16 2.64286 14.5071 1.225 12.2571C0.992857 11.8857 1.275 11.4286 1.71429 11.4286C1.92857 11.4286 2.12143 11.5429 2.23929 11.7214C3.46071 13.6071 5.58571 14.8571 8 14.8571C11.7857 14.8571 14.8571 11.7857 14.8571 8C14.8571 4.21429 11.7857 1.14286 8 1.14286C5.46071 1.14286 3.24643 2.52143 2.06071 4.57143H5.14286C5.45714 4.57143 5.71429 4.82857 5.71429 5.14286C5.71429 5.45714 5.45714 5.71429 5.14286 5.71429H0.571429Z" fill="#404040"/>
</svg>