<svg xmlns="http://www.w3.org/2000/svg" width="12" height="12" viewBox="0 0 12 12" fill="none">
  <path fill-rule="evenodd" clip-rule="evenodd" d="M8.66667 2.66667C8.66667 4.13943 7.47276 5.33333 6 5.33333C4.52724 5.33333 3.33333 4.13943 3.33333 2.66667C3.33333 1.19391 4.52724 0 6 0C7.47276 0 8.66667 1.19391 8.66667 2.66667ZM7.73333 2.66667C7.73333 3.62396 6.95729 4.4 6 4.4C5.04271 4.4 4.26667 3.62396 4.26667 2.66667C4.26667 1.70937 5.04271 0.933333 6 0.933333C6.95729 0.933333 7.73333 1.70937 7.73333 2.66667Z" fill="#404040"/>
  <path fill-rule="evenodd" clip-rule="evenodd" d="M6 5.33333H5.55556C2.48731 5.33333 0 7.82064 0 10.8889C0 11.5025 0.497461 12 1.11111 12H10.8889C11.5025 12 12 11.5025 12 10.8889C12 7.82064 9.51269 5.33333 6.44444 5.33333H6ZM0.933333 10.8889C0.933333 8.33611 3.00277 6.26667 5.55556 6.26667H6.44444C8.99723 6.26667 11.0667 8.33611 11.0667 10.8889C11.0667 10.9871 10.9871 11.0667 10.8889 11.0667H1.11111C1.01293 11.0667 0.933333 10.9871 0.933333 10.8889Z" fill="#404040"/>
</svg>