<svg xmlns="http://www.w3.org/2000/svg" width="12" height="10" viewBox="0 0 12 10" fill="none">
  <path d="M1.8 1.7C1.8 1.46131 1.89482 1.23239 2.0636 1.0636C2.23239 0.894822 2.46131 0.800001 2.7 0.800001C2.93869 0.800001 3.16761 0.894822 3.3364 1.0636C3.50518 1.23239 3.6 1.46131 3.6 1.7C3.6 1.9387 3.50518 2.16761 3.3364 2.3364C3.16761 2.50518 2.93869 2.6 2.7 2.6C2.46131 2.6 2.23239 2.50518 2.0636 2.3364C1.89482 2.16761 1.8 1.9387 1.8 1.7ZM4.2 1.7C4.2 1.30218 4.04196 0.920645 3.76066 0.639341C3.47936 0.358036 3.09782 0.200001 2.7 0.200001C2.30218 0.200001 1.92064 0.358036 1.63934 0.639341C1.35804 0.920645 1.2 1.30218 1.2 1.7C1.2 2.09783 1.35804 2.47936 1.63934 2.76066C1.92064 3.04197 2.30218 3.2 2.7 3.2C3.09782 3.2 3.47936 3.04197 3.76066 2.76066C4.04196 2.47936 4.2 2.09783 4.2 1.7ZM6 3.2C6.31826 3.2 6.62348 3.32643 6.84853 3.55147C7.07357 3.77652 7.2 4.08174 7.2 4.4C7.2 4.71826 7.07357 5.02349 6.84853 5.24853C6.62348 5.47357 6.31826 5.6 6 5.6C5.68174 5.6 5.37652 5.47357 5.15147 5.24853C4.92643 5.02349 4.8 4.71826 4.8 4.4C4.8 4.08174 4.92643 3.77652 5.15147 3.55147C5.37652 3.32643 5.68174 3.2 6 3.2ZM6 6.2C6.23638 6.2 6.47044 6.15344 6.68883 6.06298C6.90722 5.97253 7.10565 5.83994 7.27279 5.67279C7.43994 5.50565 7.57253 5.30722 7.66298 5.08883C7.75344 4.87045 7.8 4.63638 7.8 4.4C7.8 4.16362 7.75344 3.92956 7.66298 3.71117C7.57253 3.49278 7.43994 3.29435 7.27279 3.12721C7.10565 2.96006 6.90722 2.82748 6.68883 2.73702C6.47044 2.64656 6.23638 2.6 6 2.6C5.76362 2.6 5.52956 2.64656 5.31117 2.73702C5.09278 2.82748 4.89435 2.96006 4.72721 3.12721C4.56006 3.29435 4.42748 3.49278 4.33702 3.71117C4.24656 3.92956 4.2 4.16362 4.2 4.4C4.2 4.63638 4.24656 4.87045 4.33702 5.08883C4.42748 5.30722 4.56006 5.50565 4.72721 5.67279C4.89435 5.83994 5.09278 5.97253 5.31117 6.06298C5.52956 6.15344 5.76362 6.2 6 6.2ZM4.89937 7.4H7.10063C8.11688 7.4 8.94563 8.19688 8.99813 9.2H3.00188C3.05438 8.19688 3.88312 7.4 4.89937 7.4ZM4.89937 6.8C3.51937 6.8 2.4 7.91938 2.4 9.29938C2.4 9.575 2.62313 9.8 2.90063 9.8H9.09938C9.375 9.8 9.6 9.57688 9.6 9.29938C9.6 7.91938 8.48063 6.8 7.10063 6.8H4.89937ZM9.6 0.800001C9.8387 0.800001 10.0676 0.894822 10.2364 1.0636C10.4052 1.23239 10.5 1.46131 10.5 1.7C10.5 1.9387 10.4052 2.16761 10.2364 2.3364C10.0676 2.50518 9.8387 2.6 9.6 2.6C9.36131 2.6 9.13239 2.50518 8.9636 2.3364C8.79482 2.16761 8.7 1.9387 8.7 1.7C8.7 1.46131 8.79482 1.23239 8.9636 1.0636C9.13239 0.894822 9.36131 0.800001 9.6 0.800001ZM9.6 3.2C9.99783 3.2 10.3794 3.04197 10.6607 2.76066C10.942 2.47936 11.1 2.09783 11.1 1.7C11.1 1.30218 10.942 0.920645 10.6607 0.639341C10.3794 0.358036 9.99783 0.200001 9.6 0.200001C9.20218 0.200001 8.82064 0.358036 8.53934 0.639341C8.25804 0.920645 8.1 1.30218 8.1 1.7C8.1 2.09783 8.25804 2.47936 8.53934 2.76066C8.82064 3.04197 9.20218 3.2 9.6 3.2ZM9.9 4.4C10.7288 4.4 11.4 5.07125 11.4 5.9C11.4 6.065 11.535 6.2 11.7 6.2C11.865 6.2 12 6.065 12 5.9C12 4.73938 11.0606 3.8 9.9 3.8H8.325C8.37375 3.99125 8.4 4.19375 8.4 4.4H9.9ZM3.6 4.4C3.6 4.19375 3.62625 3.99125 3.675 3.8H2.1C0.939375 3.8 0 4.73938 0 5.9C0 6.065 0.135 6.2 0.3 6.2C0.465 6.2 0.6 6.065 0.6 5.9C0.6 5.07125 1.27125 4.4 2.1 4.4H3.6Z" fill="#404040"/>
</svg>