<svg xmlns="http://www.w3.org/2000/svg" width="12" height="12" viewBox="0 0 12 12" fill="none">
  <path d="M10.9765 11.8254C11.2094 12.0582 11.5925 12.0582 11.8254 11.8254C12.0582 11.5925 12.0582 11.2094 11.8254 10.9765L6.84883 6L11.8254 1.02347C12.0582 0.79061 12.0582 0.407512 11.8254 0.174648C11.5925 -0.058216 11.2094 -0.058216 10.9765 0.174648L6 5.15117L1.02347 0.174648C0.79061 -0.058216 0.407512 -0.058216 0.174648 0.174648C-0.058216 0.407512 -0.058216 0.79061 0.174648 1.02347L5.15117 6L0.174648 10.9765C-0.058216 11.2094 -0.058216 11.5925 0.174648 11.8254C0.407512 12.0582 0.79061 12.0582 1.02347 11.8254L6 6.84883L10.9765 11.8254Z" fill="#171717"/>
</svg>